<svg id="Capa_1" data-name="Capa 1" xmlns="http://www.w3.org/2000/svg" viewBox="0 0 482 376.42"><path d="M471.1,262.67H415.67V118.51a40.16,40.16,0,0,0-40.17-40h-241a40.16,40.16,0,0,0-40.17,40v48.06H50.26A36.24,36.24,0,0,0,14,202.72v216a36.24,36.24,0,0,0,36.26,36.15H178.57a36.19,36.19,0,0,0,34-24H351.4a8,8,0,0,0,8-8v-16a24.07,24.07,0,0,0-24.1-24h-24.1v-32H375.5v79.29a24.87,24.87,0,0,0,24.9,24.83h70.7A24.87,24.87,0,0,0,496,430.06V287.5A24.87,24.87,0,0,0,471.1,262.67ZM198.77,418.74a20.19,20.19,0,0,1-20.2,20.13H50.26a20.18,20.18,0,0,1-20.19-20.13v-3.89h168.7v3.89Zm0-19.91H30.07V222.63h168.7Zm0-192.22H30.07v-3.89a20.18,20.18,0,0,1,20.19-20.14H178.57a20.19,20.19,0,0,1,20.2,20.14v3.89ZM335.33,398.83a8,8,0,0,1,8,8v8H214.83v-16Zm-120.5-16v-32h80.34v32ZM375.5,334.75H214.83v-24H375.5Zm0-47.25v7.21H214.83v-92a36.24,36.24,0,0,0-36.26-36.15H110.4V118.51a24.06,24.06,0,0,1,24.1-24h241a24.06,24.06,0,0,1,24.1,24V262.75A24.87,24.87,0,0,0,375.5,287.5ZM479.93,430.06a8.82,8.82,0,0,1-8.83,8.81H400.4a8.82,8.82,0,0,1-8.83-8.81v-7.21h88.36Zm0-23.22H391.57V310.73h88.36Zm0-112.13H391.57V287.5a8.82,8.82,0,0,1,8.83-8.81h70.7a8.82,8.82,0,0,1,8.83,8.81ZM439.29,401.29h8.42a1.69,1.69,0,0,0,1.76-1.6V382.14a1.69,1.69,0,0,0-1.76-1.61h-8.42v-2.1l-16.23,2v21l16.23,2Zm0-19.83h8.42a.72.72,0,0,1,.75.69v17.55a.72.72,0,0,1-.75.68h-8.42v-18.9Zm-12.16,10.72a3.13,3.13,0,0,0,.95-.14l.18.85a3.22,3.22,0,0,1-1.3.18,2.32,2.32,0,0,1-2.53-2.4,2.48,2.48,0,0,1,2.64-2.54,3.14,3.14,0,0,1,1.25.18l-.24.88a2.61,2.61,0,0,0-.95-.17,1.48,1.48,0,0,0-1.57,1.59A1.46,1.46,0,0,0,427.13,392.18Zm3.17,1a3.56,3.56,0,0,1-1.48-.33l.24-.91a3.14,3.14,0,0,0,1.31.33c.55,0,.85-.2.85-.53s-.26-.49-.9-.71c-.87-.28-1.43-.74-1.43-1.44s.74-1.49,2-1.52a3.41,3.41,0,0,1,1.39.22l-.28.92a2.74,2.74,0,0,0-1.13-.22c-.52,0-.77.23-.77.49s.3.45,1,.69c.95.32,1.41.79,1.41,1.5S431.77,393.19,430.3,393.15Zm4.42.11a4.15,4.15,0,0,1-1.61-.35l.26-.94a3.66,3.66,0,0,0,1.42.34c.61,0,.93-.21.93-.55s-.28-.51-1-.74c-.94-.3-1.55-.77-1.55-1.51s.8-1.55,2.15-1.58a4,4,0,0,1,1.51.23l-.3,1a3,3,0,0,0-1.23-.23c-.57,0-.84.24-.84.51s.32.47,1.07.72c1,.34,1.54.82,1.54,1.57S436.32,393.3,434.72,393.26Zm5.51-1.61a5.69,5.69,0,0,1-.08.82,4.57,4.57,0,0,0-.09.82c0,1,.68,1.37,1.59,1.37h.23v-.55h-.19a.76.76,0,0,1-.87-.87,4.5,4.5,0,0,1,.07-.72,3.71,3.71,0,0,0,.08-.77,1,1,0,0,0-.79-1.09v0a1,1,0,0,0,.79-1.08,3.77,3.77,0,0,0-.08-.76,4.38,4.38,0,0,1-.07-.71c0-.54.22-.86.87-.86h.19v-.55h-.23c-.93,0-1.59.39-1.59,1.31a4.68,4.68,0,0,0,.09.83,6,6,0,0,1,.08.84c0,.35-.11.74-.89.74v.51C440.12,390.91,440.23,391.34,440.23,391.65Zm6.36,1.64a4.57,4.57,0,0,0-.09-.82,5.69,5.69,0,0,1-.08-.82c0-.31.11-.74.89-.74v-.51c-.78,0-.89-.39-.89-.74a6,6,0,0,1,.08-.84,4.68,4.68,0,0,0,.09-.83c0-.92-.67-1.31-1.6-1.31h-.22v.55h.2c.63,0,.86.32.86.86a5.88,5.88,0,0,1-.07.71,3.76,3.76,0,0,0-.09.76,1,1,0,0,0,.79,1.08v0a1,1,0,0,0-.79,1.09,3.7,3.7,0,0,0,.09.77,6,6,0,0,1,.07.72c0,.56-.26.86-.88.87h-.18v.55H445C445.9,394.66,446.59,394.3,446.59,393.29ZM304.68,287h15.84a3.08,3.08,0,0,0,3.32-2.75V254.25a3.08,3.08,0,0,0-3.32-2.75H304.68v-3.58l-30.5,3.37v36l30.5,3.46Zm0-34h15.84a1.31,1.31,0,0,1,1.42,1.17V284.3a1.32,1.32,0,0,1-1.42,1.18H304.89l-.21,0V253.09Zm-22.84,18.36a6.06,6.06,0,0,0,1.78-.25l.33,1.47a6.81,6.81,0,0,1-2.43.31c-3.18-.07-4.77-1.83-4.77-4.11,0-2.73,2.18-4.3,5-4.36a6.19,6.19,0,0,1,2.33.32l-.44,1.5a5,5,0,0,0-1.8-.29c-1.66,0-2.94.92-2.94,2.72C278.88,270.39,280,271.42,281.84,271.45Zm5.94,1.67a7.56,7.56,0,0,1-2.78-.57l.45-1.56a6.57,6.57,0,0,0,2.47.56c1,0,1.59-.35,1.59-.91s-.48-.84-1.68-1.21c-1.64-.49-2.7-1.26-2.7-2.48,0-1.42,1.39-2.54,3.74-2.6a7.48,7.48,0,0,1,2.6.38l-.52,1.58a5.65,5.65,0,0,0-2.13-.38c-1,0-1.45.4-1.45.84s.56.78,1.86,1.19c1.8.55,2.66,1.35,2.66,2.57C291.89,272,290.56,273.18,287.78,273.12Zm8.32.18a8.23,8.23,0,0,1-3-.6l.48-1.62a7.2,7.2,0,0,0,2.68.58c1.13,0,1.73-.35,1.73-.94s-.52-.87-1.83-1.26c-1.78-.51-2.92-1.31-2.92-2.58,0-1.48,1.51-2.65,4-2.71a8.26,8.26,0,0,1,2.83.39l-.57,1.65a6.05,6.05,0,0,0-2.31-.39c-1.06,0-1.57.41-1.57.87s.61.81,2,1.23c2,.58,2.89,1.41,2.89,2.68C300.55,272.11,299.1,273.37,296.1,273.3Zm10.37-2.75a8.37,8.37,0,0,1-.17,1.39,8.34,8.34,0,0,0-.16,1.4c0,1.74,1.28,2.35,3,2.35h.44v-.94h-.37c-1.16,0-1.64-.53-1.64-1.49a6.76,6.76,0,0,1,.15-1.24,6.72,6.72,0,0,0,.14-1.3,1.7,1.7,0,0,0-1.49-1.87v0a1.7,1.7,0,0,0,1.49-1.86,6.9,6.9,0,0,0-.14-1.3,6.46,6.46,0,0,1-.15-1.22c0-.92.42-1.47,1.64-1.47h.37V262h-.44c-1.75,0-3,.67-3,2.24a8.7,8.7,0,0,0,.16,1.43,8.84,8.84,0,0,1,.17,1.44c0,.6-.21,1.27-1.68,1.27v.87C306.26,269.28,306.47,270,306.47,270.55Zm11.95,2.79a8.34,8.34,0,0,0-.16-1.4,7.43,7.43,0,0,1-.17-1.39c0-.53.21-1.27,1.68-1.27v-.87c-1.47,0-1.68-.67-1.68-1.27a7.86,7.86,0,0,1,.17-1.44,8.7,8.7,0,0,0,.16-1.43c0-1.57-1.26-2.24-3-2.24H315V263h.37c1.2,0,1.64.55,1.64,1.47a8.64,8.64,0,0,1-.15,1.22,6.9,6.9,0,0,0-.16,1.3,1.72,1.72,0,0,0,1.48,1.86v0a1.72,1.72,0,0,0-1.48,1.87,6.7,6.7,0,0,0,.16,1.3,9.11,9.11,0,0,1,.15,1.24c0,1-.5,1.47-1.66,1.49H315v.94h.43C317.12,275.69,318.42,275.07,318.42,273.34ZM119,388.39H134.8a3.07,3.07,0,0,0,3.31-2.75v-30a3.07,3.07,0,0,0-3.31-2.75H119v-3.58l-30.5,3.37v36l30.5,3.46Zm0-34H134.8a1.32,1.32,0,0,1,1.42,1.18v30a1.31,1.31,0,0,1-1.42,1.17H119V354.43ZM96.12,372.79a5.74,5.74,0,0,0,1.78-.25l.33,1.48a6.87,6.87,0,0,1-2.43.3c-3.18-.07-4.77-1.83-4.77-4.11,0-2.73,2.18-4.3,5-4.36a6.41,6.41,0,0,1,2.33.32l-.44,1.5a5.3,5.3,0,0,0-1.8-.28c-1.66,0-2.94.91-2.94,2.72C93.16,371.73,94.25,372.76,96.12,372.79Zm5.94,1.67a7.56,7.56,0,0,1-2.78-.57l.45-1.56a6.39,6.39,0,0,0,2.47.56c1,0,1.59-.35,1.59-.9s-.48-.84-1.68-1.22c-1.64-.49-2.7-1.26-2.7-2.47,0-1.43,1.39-2.55,3.74-2.6a7,7,0,0,1,2.6.38l-.52,1.58a5.45,5.45,0,0,0-2.13-.38c-1,0-1.45.39-1.45.83s.56.78,1.86,1.19c1.8.55,2.66,1.35,2.66,2.57C106.17,373.32,104.84,374.52,102.06,374.46Zm8.32.18a8.26,8.26,0,0,1-3-.59l.48-1.62a7.4,7.4,0,0,0,2.68.58c1.13,0,1.73-.36,1.73-.94s-.52-.88-1.83-1.27c-1.78-.51-2.92-1.31-2.92-2.58,0-1.48,1.51-2.65,4-2.71a8.22,8.22,0,0,1,2.83.4l-.57,1.64a6.48,6.48,0,0,0-2.31-.39c-1.06,0-1.57.41-1.57.87s.61.81,2,1.24c2,.57,2.89,1.4,2.89,2.67C114.83,373.46,113.38,374.71,110.38,374.64Zm10.37-2.75a8.12,8.12,0,0,1-.17,1.39,8.35,8.35,0,0,0-.17,1.41c0,1.73,1.29,2.35,3,2.35h.44v-1h-.37c-1.16,0-1.64-.53-1.64-1.49a5.82,5.82,0,0,1,.15-1.23,6.74,6.74,0,0,0,.14-1.31,1.7,1.7,0,0,0-1.49-1.87v0a1.7,1.7,0,0,0,1.49-1.85A7,7,0,0,0,122,367a5.72,5.72,0,0,1-.15-1.21c0-.93.42-1.48,1.64-1.48h.37v-.94h-.44c-1.75,0-3,.67-3,2.25a8.6,8.6,0,0,0,.17,1.42,8.84,8.84,0,0,1,.17,1.44c0,.6-.21,1.27-1.68,1.27v.87C120.54,370.62,120.75,371.36,120.75,371.89Zm11.95,2.8a8.34,8.34,0,0,0-.16-1.41,7.24,7.24,0,0,1-.17-1.39c0-.53.21-1.27,1.68-1.27v-.87c-1.47,0-1.68-.67-1.68-1.27a7.86,7.86,0,0,1,.17-1.44,8.58,8.58,0,0,0,.16-1.42c0-1.58-1.26-2.25-3-2.25h-.41v.94h.37c1.2,0,1.64.55,1.64,1.48a8.69,8.69,0,0,1-.15,1.21,7,7,0,0,0-.17,1.31,1.73,1.73,0,0,0,1.49,1.85v0a1.73,1.73,0,0,0-1.49,1.87,6.69,6.69,0,0,0,.17,1.31,8.78,8.78,0,0,1,.15,1.23c0,1-.5,1.48-1.66,1.49h-.35v1h.43C131.4,377,132.7,376.42,132.7,374.69ZM262,257.94a.77.77,0,0,0-.21-.53L253,248.17h0a1.1,1.1,0,0,0-.18-.14l-.06,0a.67.67,0,0,0-.18-.07l-.05,0-.2,0H230.59a1.73,1.73,0,0,0-1.79,1.64v38.66a1.73,1.73,0,0,0,1.79,1.65h29.62a1.73,1.73,0,0,0,1.79-1.65V258S262,258,262,257.94Zm-31.4-8.41h20.79V258a.86.86,0,0,0,.9.82h7.93v17.05H230.59Zm6.92,36.38h-1.8v-3.14h-3v3.14h-1.8V278.4h1.8v2.89h3V278.4h1.8Zm7.1-6.08h-2.18v6.08h-1.81v-6.08h-2.14V278.4h6.13Zm7.77,6.08-.12-2.87c0-.9-.07-2-.07-3.09h0c-.25,1-.58,2-.89,2.91l-1,2.93h-1.41l-.85-2.91c-.26-.88-.53-1.95-.72-2.93h0c0,1-.08,2.18-.14,3.11l-.14,2.85h-1.67l.51-7.51h2.4l.78,2.51c.25.87.5,1.81.68,2.69h0c.23-.87.5-1.86.76-2.7l.85-2.5h2.36l.43,7.51Zm8.13,0h-5V278.4h1.81v6.09h3.17v1.42Zm-25.19-19.05,6.88,2.93v-1.4l-5.2-2.08v0l5.2-2.09V262.8l-6.88,2.93Zm7.94,3.45h1.45l3.06-9.52h-1.45Zm5.34-6.12,5.32,2.09v0l-5.32,2.08v1.4l6.88-2.89v-1.21l-6.88-2.89Zm-172,94.28a.77.77,0,0,0-.21-.53l-8.83-9.24h0a1,1,0,0,0-.18-.13l-.06,0-.18-.06,0,0-.2,0H45.19a1.73,1.73,0,0,0-1.79,1.64v38.66a1.73,1.73,0,0,0,1.79,1.64H74.81a1.73,1.73,0,0,0,1.79-1.64V358.56S76.59,358.5,76.59,358.47Zm-31.4-8.41H66v8.42a.86.86,0,0,0,.9.82h7.93v17.05H45.19Zm6.92,36.38h-1.8V383.3h-3v3.14h-1.8v-7.51h1.8v2.89h3v-2.89h1.8Zm7.1-6.08H57v6.08H55.22v-6.08H53.08v-1.43h6.13ZM67,386.44l-.12-2.87c0-.91-.07-2-.07-3.09h0c-.25,1-.58,2-.89,2.91l-1,2.93H63.49l-.85-2.91c-.26-.88-.53-2-.72-2.93h0c0,1-.08,2.17-.14,3.11l-.14,2.85H59.94l.51-7.51h2.4l.78,2.51c.25.87.5,1.8.68,2.68h0c.23-.87.5-1.86.76-2.69l.85-2.5h2.36l.43,7.51Zm8.13,0h-5v-7.51h1.81V385h3.17v1.43ZM49.92,367.39l6.88,2.92v-1.39l-5.2-2.08v0l5.2-2.09v-1.39l-6.88,2.93Zm7.94,3.45h1.45l3.06-9.52H60.92Zm5.34-6.12,5.32,2.09v0l-5.32,2.08v1.39l6.88-2.88v-1.21l-6.88-2.89Zm354.28,20.13a.42.42,0,0,0-.14-.29l-5.48-5h0a.41.41,0,0,0-.11-.07l0,0-.11,0h0l-.13,0H398a1,1,0,0,0-1.11.89v20.75A1,1,0,0,0,398,402h18.42a1,1,0,0,0,1.11-.89V384.85ZM398,380.34h12.93v4.52a.51.51,0,0,0,.56.44h4.93v9.15H398Zm4.3,19.53h-1.11v-1.69h-1.85v1.69h-1.13v-4h1.13v1.55h1.85v-1.55h1.11Zm4.42-3.27h-1.36v3.27h-1.12V396.6h-1.33v-.76h3.81Zm4.83,3.27-.07-1.54c0-.49-.05-1.07-.05-1.66h0c-.15.51-.36,1.09-.55,1.56l-.6,1.57h-.88l-.53-1.56a16.17,16.17,0,0,1-.45-1.57h0c0,.54,0,1.17-.09,1.67l-.09,1.53h-1l.32-4h1.49l.49,1.34c.15.47.31,1,.42,1.45h0c.14-.47.31-1,.47-1.45l.53-1.34h1.46l.28,4Zm5.05,0h-3.09v-4h1.12v3.26h2v.77Zm-15.66-10.23,4.28,1.57v-.75l-3.23-1.12h0l3.23-1.12v-.75L400.89,389Zm4.94,1.85h.9l1.9-5.11h-.9Zm3.32-3.28,3.3,1.12h0l-3.3,1.12v.75l4.27-1.55V389l-4.27-1.55ZM360.54,249.27H337.4a1.18,1.18,0,0,0-1.17,1.34v37c0,.24.52.7,1.17.7h32c.64,0,1.16-.46,1.16-.7V258.3c0-.48-.07-.64-.2-.75L361,249.44A.77.77,0,0,0,360.54,249.27Zm.41.1v8.25h9.44Zm8.4,38.9h-32a1.1,1.1,0,0,1-1.17-1V276.43h34.28v10.82A1.1,1.1,0,0,1,369.35,288.27ZM351.79,279v5.46a1.62,1.62,0,0,1-.2.83,1.64,1.64,0,0,1-.56.55,2.44,2.44,0,0,1-.8.28,4.73,4.73,0,0,1-.93.08,4,4,0,0,1-.56,0,5.64,5.64,0,0,1-.67-.13,6.37,6.37,0,0,1-.66-.21,2.38,2.38,0,0,1-.53-.25l.55-.78a1.86,1.86,0,0,0,.31.14l.45.14.5.1a2.15,2.15,0,0,0,.49.05,1.88,1.88,0,0,0,.92-.19.73.73,0,0,0,.36-.66V279Zm6.51,5.23a1.62,1.62,0,0,1-.18.74,2,2,0,0,1-.5.63,2.59,2.59,0,0,1-.81.43,3.33,3.33,0,0,1-1.09.16l-.54,0a5.39,5.39,0,0,1-.56-.08,3.08,3.08,0,0,1-.54-.16,2,2,0,0,1-.44-.24l.22-.82.39.15.49.13.5.1a2.56,2.56,0,0,0,.47,0,1.67,1.67,0,0,0,1-.27,1,1,0,0,0,.35-.81.71.71,0,0,0-.25-.55,2.74,2.74,0,0,0-.63-.41c-.25-.13-.52-.25-.81-.38a5.8,5.8,0,0,1-.82-.43,2.58,2.58,0,0,1-.63-.6,1.38,1.38,0,0,1-.25-.85,1.7,1.7,0,0,1,.2-.83,1.85,1.85,0,0,1,.53-.62,2.64,2.64,0,0,1,.77-.38,3.12,3.12,0,0,1,.93-.14,5.75,5.75,0,0,1,1,.09,2.32,2.32,0,0,1,.83.26l-.15.27-.16.27-.13.22c0,.06-.06.09-.07.09l-.15-.07a1,1,0,0,0-.23-.1,1.89,1.89,0,0,0-.4-.06,3.62,3.62,0,0,0-.65,0,1,1,0,0,0-.41.11,1.38,1.38,0,0,0-.35.22,1.13,1.13,0,0,0-.24.3.68.68,0,0,0-.09.32.78.78,0,0,0,.25.61,2.57,2.57,0,0,0,.62.41c.25.12.52.23.81.34a4.39,4.39,0,0,1,.81.41,2.37,2.37,0,0,1,.63.59A1.56,1.56,0,0,1,358.3,284.25ZM346.59,262.5v-2.79a.75.75,0,0,1,.8-.69.71.71,0,1,0,0-1.4,2.26,2.26,0,0,0-2.39,2.09v2.79a1.5,1.5,0,0,1-1.59,1.39.7.7,0,1,0,0,1.39,1.51,1.51,0,0,1,1.59,1.4v2.78a2.26,2.26,0,0,0,2.39,2.09.7.7,0,1,0,0-1.39.75.75,0,0,1-.8-.7v-2.78a2.63,2.63,0,0,0-1.1-2.09A2.65,2.65,0,0,0,346.59,262.5Zm6.38-1.4a1.06,1.06,0,1,1,0,2.09,1.05,1.05,0,1,1,0-2.09Zm9.57,2.79A1.5,1.5,0,0,1,361,262.5v-2.79a2.27,2.27,0,0,0-2.4-2.09.71.71,0,1,0,0,1.4.75.75,0,0,1,.8.69v2.79a2.65,2.65,0,0,0,1.1,2.09,2.63,2.63,0,0,0-1.1,2.09v2.78a.75.75,0,0,1-.8.7.7.7,0,1,0,0,1.39,2.27,2.27,0,0,0,2.4-2.09v-2.78a1.51,1.51,0,0,1,1.59-1.4.7.7,0,1,0,0-1.39ZM353,266a.74.74,0,0,0-.79.7v2.09a.74.74,0,0,0,.79.69.75.75,0,0,0,.8-.69v-2.09A.75.75,0,0,0,353,266ZM177.65,350.62H154.51a1.18,1.18,0,0,0-1.17,1.34v37c0,.24.52.69,1.17.69h32c.64,0,1.16-.45,1.16-.69V359.66c0-.48-.07-.64-.2-.76l-9.28-8.1A.78.78,0,0,0,177.65,350.62Zm.41.11V359h9.44Zm8.4,38.89h-32a1.1,1.1,0,0,1-1.17-1V377.78h34.28V388.6A1.09,1.09,0,0,1,186.46,389.62Zm-17.56-9.25v5.47a1.62,1.62,0,0,1-.2.83,1.53,1.53,0,0,1-.56.54,2.24,2.24,0,0,1-.8.29,5.64,5.64,0,0,1-.93.08,4,4,0,0,1-.56,0,5.72,5.72,0,0,1-.67-.14,6.36,6.36,0,0,1-.66-.2,2.38,2.38,0,0,1-.53-.26l.55-.77a1.86,1.86,0,0,0,.31.14l.45.13.5.11a2.91,2.91,0,0,0,.49.05,1.87,1.87,0,0,0,.92-.2.73.73,0,0,0,.36-.66v-5.37Zm6.51,5.24a1.65,1.65,0,0,1-.18.74,2,2,0,0,1-.5.63,2.59,2.59,0,0,1-.81.43,3.38,3.38,0,0,1-1.09.16l-.54,0-.56-.08a3.08,3.08,0,0,1-.54-.16,2,2,0,0,1-.44-.24l.22-.82a2.17,2.17,0,0,0,.39.14l.49.14.5.1a3.89,3.89,0,0,0,.47,0,1.61,1.61,0,0,0,1-.28,1,1,0,0,0,.35-.8.7.7,0,0,0-.25-.55,3.13,3.13,0,0,0-.63-.42l-.81-.37a5,5,0,0,1-.82-.44,2.37,2.37,0,0,1-.63-.59,1.39,1.39,0,0,1-.25-.86,1.76,1.76,0,0,1,.2-.83,1.9,1.9,0,0,1,.52-.61,2.48,2.48,0,0,1,.78-.39,3.48,3.48,0,0,1,.93-.13,6.87,6.87,0,0,1,1,.08,2.54,2.54,0,0,1,.83.26,2.6,2.6,0,0,1-.15.28c-.06.09-.11.19-.16.27l-.13.22c0,.05-.06.09-.07.09l-.15-.07a.71.71,0,0,0-.23-.1,2.7,2.7,0,0,0-.4-.07,4.88,4.88,0,0,0-.65,0,1.46,1.46,0,0,0-.41.11,1.41,1.41,0,0,0-.35.23.89.89,0,0,0-.24.3.64.64,0,0,0-.09.31.8.8,0,0,0,.25.62,2.57,2.57,0,0,0,.62.41c.25.12.52.23.81.34a4.39,4.39,0,0,1,.81.41,2.09,2.09,0,0,1,.63.59A1.54,1.54,0,0,1,175.41,385.61ZM163.7,363.85v-2.78a.75.75,0,0,1,.8-.7.7.7,0,1,0,0-1.39,2.26,2.26,0,0,0-2.39,2.09v2.78a1.51,1.51,0,0,1-1.6,1.4.7.7,0,1,0,0,1.39,1.51,1.51,0,0,1,1.6,1.39v2.79a2.26,2.26,0,0,0,2.39,2.09.7.7,0,1,0,0-1.39.76.76,0,0,1-.8-.7V368a2.65,2.65,0,0,0-1.1-2.09A2.63,2.63,0,0,0,163.7,363.85Zm6.38-1.39a1.05,1.05,0,1,1-1.19,1.05A1.13,1.13,0,0,1,170.08,362.46Zm9.57,2.79a1.51,1.51,0,0,1-1.59-1.4v-2.78a2.27,2.27,0,0,0-2.4-2.09.7.7,0,1,0,0,1.39.75.75,0,0,1,.8.7v2.78a2.63,2.63,0,0,0,1.1,2.09,2.65,2.65,0,0,0-1.1,2.09v2.79a.76.76,0,0,1-.8.7.7.7,0,1,0,0,1.39,2.27,2.27,0,0,0,2.4-2.09V368a1.5,1.5,0,0,1,1.59-1.39.7.7,0,1,0,0-1.39Zm-9.57,2.09a.74.74,0,0,0-.79.69v2.09a.74.74,0,0,0,.79.7.75.75,0,0,0,.8-.7V368A.75.75,0,0,0,170.08,367.34ZM468.62,378.6H454.57c-.4,0-.71.29-.71.83v22.89c0,.14.31.43.71.43H474c.39,0,.7-.29.7-.43V384.2c0-.3,0-.4-.12-.47l-5.63-5A.42.42,0,0,0,468.62,378.6Zm.24.07v5.11h5.74ZM474,402.75h-19.4a.67.67,0,0,1-.71-.63v-6.7h20.81v6.7A.67.67,0,0,1,474,402.75ZM463.31,397v3.38a.93.93,0,0,1-.13.52.92.92,0,0,1-.34.34,1.44,1.44,0,0,1-.48.17,2.69,2.69,0,0,1-.57.05l-.34,0-.4-.09a3.79,3.79,0,0,1-.4-.12,1.69,1.69,0,0,1-.33-.16l.34-.48a.85.85,0,0,0,.19.09l.27.08.3.07.3,0a1,1,0,0,0,.56-.13.45.45,0,0,0,.22-.4V397Zm3.95,3.24a1.07,1.07,0,0,1-.11.46,1.16,1.16,0,0,1-.31.39,1.52,1.52,0,0,1-.49.27,2.18,2.18,0,0,1-.66.1l-.33,0a2.15,2.15,0,0,1-.34,0,1.39,1.39,0,0,1-.33-.1.93.93,0,0,1-.26-.15l.13-.5.24.09.29.08.31.06.28,0a1,1,0,0,0,.62-.17.58.58,0,0,0,.22-.5.43.43,0,0,0-.16-.34,1.41,1.41,0,0,0-.38-.26l-.49-.23a2.42,2.42,0,0,1-.5-.27,1.49,1.49,0,0,1-.38-.37.88.88,0,0,1-.15-.53,1.1,1.1,0,0,1,.44-.89,1.6,1.6,0,0,1,.47-.24,2.12,2.12,0,0,1,.57-.08,4.3,4.3,0,0,1,.61,0,1.4,1.4,0,0,1,.5.16,1,1,0,0,1-.09.17l-.1.17-.08.13s0,.06,0,.06l-.09,0-.14-.05a1.11,1.11,0,0,0-.24-.05h-.39a.81.81,0,0,0-.47.21.49.49,0,0,0-.14.18.41.41,0,0,0-.06.2.5.5,0,0,0,.15.38,1.47,1.47,0,0,0,.38.25,4.49,4.49,0,0,0,.49.22,2.34,2.34,0,0,1,.5.25,1.44,1.44,0,0,1,.38.36A1,1,0,0,1,467.26,400.26Zm-7.11-13.46v-1.73a.46.46,0,0,1,.48-.43.43.43,0,1,0,0-.86,1.38,1.38,0,0,0-1.45,1.29v1.73a.92.92,0,0,1-1,.86.43.43,0,1,0,0,.86.92.92,0,0,1,1,.86v1.73a1.38,1.38,0,0,0,1.45,1.29.43.43,0,1,0,0-.86.47.47,0,0,1-.48-.43v-1.73a1.58,1.58,0,0,1,0-2.58Zm3.87-.87a.65.65,0,1,1,0,1.3.65.65,0,1,1,0-1.3Zm5.81,1.73a.93.93,0,0,1-1-.86v-1.73a1.38,1.38,0,0,0-1.45-1.29.43.43,0,1,0,0,.86.46.46,0,0,1,.49.43v1.73a1.58,1.58,0,0,1,0,2.58v1.73a.47.47,0,0,1-.49.43.43.43,0,1,0,0,.86,1.38,1.38,0,0,0,1.45-1.29v-1.73a.93.93,0,0,1,1-.86.43.43,0,1,0,0-.86ZM464,389a.46.46,0,0,0-.48.43v1.3a.49.49,0,0,0,1,0v-1.3A.46.46,0,0,0,464,389Z" transform="translate(-14 -78.47)"/></svg>